<svg height="32" viewBox="0 0 323 32" width="323" xmlns="http://www.w3.org/2000/svg"><path d="m5.85365854 6.7902439.07804878 3.902439h.07804878c.7804878-2.18536583 2.73170731-3.902439 5.6195122-3.902439 3.6682927 0 4.7609756 1.87317073 4.7609756 5.3853659v7.0243902c0 2.1073171.1560976 4.2926829.6243902 6.0097561h-6.0097561c.4682927-1.5609756.5463415-3.4341463.5463415-5.7756098v-6.7902439c0-1.6390244-.6243902-2.3414634-2.41951218-2.3414634-1.32682927 0-2.34146342.3902439-3.12195122 1.0146342v7.9609756c0 2.2634146.07804878 4.1365853.54634146 5.7756097h-5.85365854c.54634147-1.6390244.62439025-3.8243902.62439025-6.0097561v-6.4c0-1.7170731-.62439025-3.27804874-1.32682927-4.13658533zm19.51219516-.07804878c4.604878 0 6.4 1.79512195 6.4 5.61951218v7.8829268c0 1.4048781.5463414 1.8731708 1.6390243 1.8731708.2341464 0 .7804879-.0780488.9365854-.2341464-.0780488.5463415-.1560975.8585366-.3121951 1.1707317-.5463415 1.4829269-1.4829268 2.4195122-3.4341463 2.4195122-2.2634147 0-3.4341464-1.5609756-3.5121952-3.2780487h-.0780488c-.7804878 2.2634146-2.2634146 3.2780487-4.5268292 3.2780487-2.8878049 0-4.6829268-1.7170731-4.6829268-4.3707317 0-2.8097561 2.5756097-4.0585366 5.307317-5.0731707 2.497561-1.0146341 3.902439-1.7170732 3.902439-3.5121951v-.3902439c0-2.0292683-.6243902-3.04390246-2.4975609-3.04390246-1.1707317 0-1.6390244.54634146-1.8731708 1.63902436-.3902439 1.7170732-1.0146341 2.3414634-2.1853658 2.3414634-1.0146342 0-1.9512195-.702439-1.9512195-1.9512195-.0780488-2.65365851 3.3560975-4.37073168 6.8682927-4.37073168zm1.6390243 14.82926828v-6.4780488c-.3902439.5463415-.7804878.8585366-2.107317 1.4829269-1.6390244.8585365-2.2634147 1.7170731-2.2634147 3.5902439 0 1.5609756.8585366 2.4975609 2.2634147 2.4975609 1.3268292.0780488 1.7951219-.3902439 2.107317-1.0926829zm17.7170732 1.4829268c-.6243902 1.4048781-2.1073171 2.3414635-4.2926829 2.3414635-3.6682927 0-5.0731707-1.8731708-5.0731707-5.1512196v-10.6146341h-1.795122v-.15609756l6.4-6.63414634h.0780488v4.21463414h4.5268293l-.4682927 2.49756098h-3.9804878v9.75609758c0 1.8731707.7804878 2.5756097 2.4975609 2.5756097 1.2487805 0 1.9512196-.2341463 2.497561-.4682926-.1560975.702439-.1560975 1.0926829-.3902439 1.6390243zm6.1658537-15.99999996v12.33170736c0 1.8731707.702439 2.8878048 2.497561 2.8878048 1.4829268 0 2.6536585-.4682926 3.2780487-1.3268292v-8.4292683c0-1.795122-.2341463-3.35609758-.7804878-4.91707319l5.5414634-.54634147v12.64390246c0 2.7317073.3121952 3.9804878.7024391 5.3853658h-5.3853659v-3.5121951h-.0780488c-.7804878 2.2634146-2.2634146 3.902439-5.3853658 3.902439-3.902439 0-5.3853659-2.3414634-5.3853659-5.8536585v-7.0243902c0-1.795122-.1560975-3.3560976-.7804878-4.91707321zm18.1853658 4.29268296c.7804878-3.27804881 2.2634147-4.5268293 4.292683-4.5268293 1.8731707 0 2.7317073.93658537 2.7317073 2.49756098 0 1.40487802-.7804878 2.49756102-2.1853659 2.49756102-.7804878 0-1.3268292-.3902439-1.6390244-.7024391-.3902439-.3902439-.702439-.7804878-1.0926829-.7804878-.9365854 0-2.0292683 1.5609756-2.0292683 4.292683v4.3707317c0 2.1853658.1560976 4.3707317.6243903 6.0878048h-6.0097561c.5463414-1.6390244.6243902-3.8243902.6243902-6.0097561v-6.5560975c0-1.7170732-.6243902-3.2780488-1.3268293-4.13658539l5.8536586-1.63902439h.0780488zm14.9073171 14.0487805c-4.5268293 0-8.3512195-3.0439025-8.3512195-8.897561 0-5.9317073 3.5902439-9.83414636 8.5073171-9.83414636 4.604878 0 6.7902439 2.88780488 6.7902439 8.50731706h-10.5365854v.5463415c0 4.4487805 2.2634146 6.2439024 5.4634146 6.2439024 2.8097561 0 4.1365854-1.1707317 4.9170732-1.9512195l.0780488.3121951c-.702439 2.5756098-2.9658537 5.0731708-6.8682927 5.0731708zm-3.5121951-11.4731708 6.0097561-.5463414c-.0780488-2.8097561-.4682927-4.5268293-2.497561-4.5268293-2.0292683.07804878-3.2780488 1.6390244-3.5121951 5.0731707zm21.6975613-2.5756097c.780487-3.27804881 2.263414-4.5268293 4.292683-4.5268293 1.87317 0 2.731707.93658537 2.731707 2.49756098 0 1.40487802-.780488 2.49756102-2.185366 2.49756102-.780488 0-1.326829-.3902439-1.639024-.7024391-.390244-.3902439-.702439-.7804878-1.092683-.7804878-.936586 0-2.029269 1.5609756-2.029269 4.292683v4.3707317c0 2.1853658.156098 4.3707317.624391 6.0878048h-6.0097564c.5463414-1.6390244.6243902-3.8243902.6243902-6.0097561v-6.5560975c0-1.7170732-.6243902-3.2780488-1.3268292-4.13658539l5.8536584-1.63902439h.078049zm14.907317 14.0487805c-4.52683 0-8.35122-3.0439025-8.35122-8.897561 0-5.9317073 3.590244-9.83414636 8.507317-9.83414636 4.604878 0 6.790244 2.88780488 6.790244 8.50731706h-10.536585v.5463415c0 4.4487805 2.263414 6.2439024 5.463414 6.2439024 2.809757 0 4.136586-1.1707317 4.917074-1.9512195l.078048.3121951c-.702439 2.5756098-2.887804 5.0731708-6.868292 5.0731708zm-3.512195-11.4731708 6.009756-.5463414c-.078049-2.8097561-.468293-4.5268293-2.497561-4.5268293-2.107317.07804878-3.278049 1.6390244-3.512195 5.0731707zm17.560975-1.8731707 2.263415 6.0097561 2.263414-6.0097561c.780488-1.9512195 1.014635-3.66829269.468293-4.99512196h4.526829c-.858536 1.24878049-1.795122 3.27804876-2.653658 5.38536586l-4.995122 12.8h-1.560976l-5.229268-12.7219512c-.936585-2.2634147-1.560976-3.82439027-2.497561-5.38536588h6.556098c-.234147 1.40487805.078048 2.8097561.858536 4.91707318zm15.219512 7.0243902c0 2.1073171.156098 4.292683.624391 6.0097561h-6.165854c.546341-1.6390244.62439-3.8243902.62439-6.0097561v-6.4780487c0-1.7170732-.62439-3.27804882-1.326829-4.13658541l6.243902-1.63902439h.078049l-.156097 4.4487805zm-5.385365-16.2341463c0-1.56097561 1.170731-2.8097561 2.887804-2.8097561 1.717074 0 2.887805 1.24878049 2.887805 2.8097561s-1.170731 2.8097561-2.887805 2.8097561c-1.717073.07804878-2.887804-1.24878049-2.887804-2.8097561zm15.843902 22.5560976c-4.526829 0-8.35122-3.0439025-8.35122-8.897561 0-5.9317073 3.590244-9.83414636 8.507318-9.83414636 4.604878 0 6.790243 2.88780488 6.790243 8.50731706h-10.536585v.5463415c0 4.4487805 2.263415 6.2439024 5.463415 6.2439024 2.809756 0 4.136585-1.1707317 4.917073-1.9512195l.078049.3121951c-.780488 2.5756098-2.965854 5.0731708-6.868293 5.0731708zm-3.590244-11.4731708 6.009756-.5463414c-.078049-2.8097561-.468292-4.5268293-2.497561-4.5268293-2.029268.07804878-3.2 1.6390244-3.512195 5.0731707zm17.170732-1.9512195 1.795122 5.8536586h.078049l3.590243-10.69268298h1.873171l3.668293 10.69268298h.078049l1.717073-5.4634147c.702439-2.1073171.780488-3.90243901.390244-5.30731706h4.136585c-.62439 1.40487805-1.404878 3.35609756-2.107317 5.69756096l-4.136585 12.4097561h-1.873171l-3.82439-11.2390244h-.078049l-3.980488 11.2390244h-1.873171l-4.058536-12.4097561c-.780488-2.4195122-1.404878-4.13658535-2.107317-5.61951218h6.087805c-.078049 1.32682927 0 2.8097561.62439 4.83902438zm28.409756-4.37073169.156097 3.74634149h-.078048c-1.32683-1.40487808-2.653659-2.497561-4.682927-2.497561-1.404878 0-2.341464.54634146-2.341464 1.7951219 0 1.2487805.624391 1.795122 3.512196 3.0439025 3.043902 1.2487805 4.917073 2.6536585 4.917073 5.6195122 0 3.0439024-1.639025 6.0878049-6.634147 6.0878049-2.107317 0-4.136585-.3902439-5.697561-1.2487805l-.234146-4.5268293h.156098c1.404878 1.795122 3.434146 3.5902439 5.697561 3.5902439 2.185365 0 2.653658-.7804878 2.653658-2.1853658 0-1.5609757-.780488-2.0292683-3.590244-3.2-2.887805-1.2487805-4.839024-2.5756098-4.839024-5.6195122 0-3.43414639 2.653658-5.54146346 6.243902-5.54146346 2.263415.07804878 3.590244.46829268 4.760976.93658537zm8.117073 18.34146339h1.795122c.468293 2.1853659 2.263415 3.6682927 5.931707 3.6682927 3.668293 0 6.321952-1.6390244 6.321952-6.0097561v-3.5121951c-.936586 2.0292683-3.278049 4.1365854-6.556098 4.1365854-4.370732 0-7.804878-3.2-7.804878-8.2731708v-.2341463c0-4.9170732 3.434146-8.5073171 8.039024-8.5073171 3.356098 0 5.385366 1.87317074 6.321952 3.9804878v-3.43414633h1.717073v16.15609753c0 5.0731708-3.356098 7.4146342-8.039025 7.4146342-4.995122-.0780488-7.336585-2.5756098-7.726829-5.3853659zm13.970732-9.8341463v-.2341464c0-4.2926829-2.57561-6.86829264-6.243903-6.86829264-3.668292 0-6.4 2.65365854-6.4 6.94634144v.2341464c0 4.2926829 2.653659 6.8682926 6.165854 6.8682926 3.590244-.0780487 6.478049-2.6536585 6.478049-6.9463414zm4.526829.4682927v-.2341464c0-5.1512195 3.278049-8.81951217 7.960976-8.81951217 4.136585 0 7.570731 2.65365857 7.570731 8.42926827v.6243903h-13.580487c.078048 4.604878 2.263414 7.2585365 6.4 7.2585365 2.887804 0 4.760975-1.1707317 5.463414-3.5902439h1.717073c-.702439 3.2780488-3.434146 5.0731708-7.180487 5.0731708-5.15122-.0780488-8.35122-3.5902439-8.35122-8.7414634zm13.658537-1.4829269c-.156098-4.1365853-2.341464-6.16585362-5.77561-6.16585362-3.278049 0-5.77561 2.34146342-6.087805 6.16585362zm4.604878-7.33658533h1.717073v3.35609753c.780488-1.8731707 3.043902-3.59024387 6.165854-3.59024387 3.668292 0 6.165853 1.95121951 6.165853 6.94634147v10.5365854h-1.717073v-10.7707318c0-3.6682926-1.717073-5.30731702-4.760976-5.30731702-2.887804 0-5.775609 1.87317072-5.775609 5.61951222v10.4585366h-1.717074v-17.24878053zm16.62439 8.81951223v-.2341464c0-5.1512195 3.278049-8.81951217 7.960976-8.81951217 4.136585 0 7.570731 2.65365857 7.570731 8.42926827v.6243903h-13.658536c.078048 4.604878 2.263414 7.2585365 6.4 7.2585365 2.887805 0 4.760975-1.1707317 5.463414-3.5902439h1.717073c-.702439 3.2780488-3.434146 5.0731708-7.180487 5.0731708-5.073171-.0780488-8.273171-3.5902439-8.273171-8.7414634zm13.658537-1.4829269c-.156098-4.1365853-2.341464-6.16585362-5.77561-6.16585362-3.278049 0-5.77561 2.34146342-6.087805 6.16585362zm5.307317 5.7756098v-11.6292683h-2.497561v-1.48292683h2.497561v-3.90243903h1.717073v3.90243903h4.526829v1.48292683h-4.526829v11.4731707c0 2.0292683 1.014634 3.0439025 2.57561 3.0439025.858536 0 1.560975-.1560976 2.185365-.3902439v1.4829268c-.546341.2341463-1.24878.3902439-2.263414.3902439-2.731708 0-4.214634-1.6390244-4.214634-4.3707317zm8.897561-18.10731708c0-.62439025.546341-1.24878049 1.24878-1.24878049s1.248781.54634146 1.248781 1.24878049c0 .70243902-.546342 1.24878048-1.248781 1.24878048s-1.24878-.54634146-1.24878-1.24878048zm.390243 4.99512195h1.717074v17.24878053h-1.717074zm4.52683 8.81951223v-.2341464c0-5.3073171 3.668292-8.81951217 8.27317-8.81951217 3.512196 0 6.790244 1.87317073 7.258537 5.77560977h-1.717073c-.390244-2.8878049-2.731707-4.21463416-5.541464-4.21463416-3.590243 0-6.478048 2.73170736-6.478048 7.33658536v.2341463c0 4.5268293 2.809756 7.2585366 6.478048 7.2585366 2.887805 0 5.385366-1.6390244 5.77561-4.6829268h1.639025c-.468293 3.6682927-3.434147 6.2439024-7.414635 6.2439024-4.682926-.2341463-8.27317-3.6682926-8.27317-8.8975609zm16.936585 3.2780487h1.639024c.312196 2.3414635 1.717074 3.9024391 4.917074 3.9024391 2.887805 0 4.370731-1.3268293 4.370731-3.3560976 0-2.1853658-1.24878-2.8878049-4.526829-3.5121951-4.214634-.7804878-6.009756-1.8731707-6.009756-4.7609756s2.731707-4.60487807 5.697561-4.60487807c3.043902 0 5.619512 1.24878048 6.009756 4.68292687h-1.639024c-.390244-2.1853659-1.873171-3.20000004-4.292683-3.20000004s-3.980488 1.24878044-3.980488 3.04390244c0 1.9512195 1.170732 2.6536585 4.682927 3.2780488 3.668292.6243902 5.853658 1.5609756 5.853658 4.9170731 0 2.8878049-2.107317 4.995122-6.087805 4.995122-4.058536 0-6.4-2.1073171-6.634146-5.3853659z"/></svg>